<?xml version="1.0" encoding="UTF-8"?>
<svg width="60px" height="30px" viewBox="-2 0 60 25" version="1.1" xmlns="http://www.w3.org/2000/svg" xmlns:xlink="http://www.w3.org/1999/xlink">
    <!-- Generator: Sketch 64 (93537) - https://sketch.com -->
    <title>白色</title>
    <desc>Created with Sketch.</desc>
    <g id="页面-1" stroke="none" stroke-width="1" fill="none" fill-rule="evenodd">
        <g id="官网-08">
            <path d="M18.24,21.278 L14.693,21.278 C14.043,21.278 13.512,20.747 13.512,20.096 L13.512,7.881 C13.512,7.231 14.043,6.699 14.693,6.699 L18.24,6.699 C18.89,6.699 19.422,7.231 19.422,7.881 L19.422,20.096 C19.422,20.747 18.89,21.278 18.24,21.278" id="Fill-30" fill="#F9BE00"></path>
            <path d="M52.928,21.278 L49.381,21.278 C48.731,21.278 48.199,20.747 48.199,20.096 L48.199,7.881 C48.199,7.231 48.731,6.699 49.381,6.699 L52.928,6.699 C53.578,6.699 54.109,7.231 54.109,7.881 L54.109,20.096 C54.109,20.747 53.578,21.278 52.928,21.278" id="Fill-31" fill="#00A744"></path>
            <path d="M19.422,2.956 C19.422,4.587 18.099,5.911 16.467,5.911 C14.835,5.911 13.512,4.587 13.512,2.956 C13.512,1.323 14.835,0 16.467,0 C18.099,0 19.422,1.323 19.422,2.956" id="Fill-32" fill="#E73820"></path>
            <path d="M10.752,16.55 L6.023,16.55 L6.023,7.881 C6.023,7.231 5.491,6.699 4.842,6.699 L1.295,6.699 C0.645,6.699 0.113,7.231 0.113,7.881 L0.113,20.096 C0.113,20.747 0.645,21.278 1.295,21.278 L10.752,21.278 C11.402,21.278 11.935,20.747 11.935,20.096 L11.935,17.732 C11.935,17.082 11.402,16.55 10.752,16.55" id="Fill-33" fill="#3071B7"></path>
            <path d="M31.648,6.699 L22.191,6.699 C21.541,6.699 21.009,7.23 21.009,7.881 L21.009,14.58 C21.009,15.232 21.538,15.762 22.191,15.762 L26.891,15.762 L26.92,15.765 C27.096,15.771 27.255,15.836 27.384,15.94 C27.562,16.085 27.679,16.303 27.679,16.55 C27.679,16.973 27.34,17.319 26.92,17.335 L26.891,17.338 L22.191,17.338 C21.538,17.338 21.009,17.867 21.009,18.52 L21.009,20.096 C21.009,20.747 21.541,21.278 22.191,21.278 L31.648,21.278 C32.298,21.278 32.83,20.747 32.83,20.096 L32.83,13.398 C32.83,12.745 32.301,12.215 31.648,12.215 L26.931,12.215 L26.92,12.214 C26.491,12.208 26.143,11.857 26.143,11.427 C26.143,10.998 26.491,10.646 26.92,10.64 L26.931,10.639 L31.648,10.639 C32.298,10.639 32.83,10.107 32.83,9.457 L32.83,7.881 C32.83,7.23 32.298,6.699 31.648,6.699" id="Fill-34" fill="#E73820"></path>
            <path d="M45.44,11.821 L41.5,11.821 C40.848,11.821 40.318,11.292 40.318,10.639 L40.318,7.881 C40.318,7.23 39.786,6.699 39.136,6.699 L35.59,6.699 C34.939,6.699 34.407,7.23 34.407,7.881 L34.407,20.096 C34.407,20.747 34.939,21.278 35.59,21.278 L39.136,21.278 C39.786,21.278 40.318,20.747 40.318,20.096 L40.318,16.55 C40.318,16.116 40.673,15.762 41.106,15.762 C41.54,15.762 41.895,16.116 41.895,16.55 L41.895,20.096 C41.895,20.747 42.427,21.278 43.076,21.278 L45.44,21.278 C46.091,21.278 46.623,20.747 46.623,20.096 L46.623,13.003 C46.623,12.353 46.091,11.821 45.44,11.821" id="Fill-35" fill="#3071B7"></path>
            <path d="M52.707,1.41 C52.901,1.41 53.019,1.325 53.019,1.163 C53.019,1.02 52.94,0.923 52.72,0.923 L52.519,0.923 L52.519,1.41 L52.707,1.41 Z M52.22,0.676 L52.771,0.676 C53.07,0.676 53.337,0.799 53.337,1.144 C53.337,1.319 53.227,1.488 53.063,1.546 L53.401,2.15 L53.07,2.15 L52.811,1.637 L52.519,1.637 L52.519,2.15 L52.22,2.15 L52.22,0.676 Z M53.824,1.429 C53.824,0.747 53.356,0.26 52.745,0.26 C52.135,0.26 51.667,0.747 51.667,1.429 C51.667,2.118 52.135,2.599 52.745,2.599 C53.356,2.599 53.824,2.118 53.824,1.429 Z M51.382,1.429 C51.382,0.584 51.998,0 52.745,0 C53.493,0 54.109,0.584 54.109,1.429 C54.109,2.28 53.493,2.858 52.745,2.858 C51.998,2.858 51.382,2.28 51.382,1.429 L51.382,1.429 Z" id="Fill-36" fill="#FFFFFF"></path>
        </g>
    </g>
</svg>